<svg width="24" height="24" viewBox="0 0 24 24" fill="none" xmlns="http://www.w3.org/2000/svg">
<path d="M16.96 6.17C18.96 7.56 20.34 9.77 20.62 12.32" stroke="#292D32" stroke-width="1.5" stroke-linecap="round" stroke-linejoin="round"/>
<path d="M3.48999 12.37C3.74999 9.83 5.10999 7.62 7.08999 6.22" stroke="#292D32" stroke-width="1.5" stroke-linecap="round" stroke-linejoin="round"/>
<path d="M8.18994 20.94C9.34994 21.53 10.6699 21.86 12.0599 21.86C13.3999 21.86 14.6599 21.56 15.7899 21.01" stroke="#292D32" stroke-width="1.5" stroke-linecap="round" stroke-linejoin="round"/>
<path d="M12.06 7.7C13.5954 7.7 14.84 6.45535 14.84 4.92C14.84 3.38465 13.5954 2.14 12.06 2.14C10.5247 2.14 9.28003 3.38465 9.28003 4.92C9.28003 6.45535 10.5247 7.7 12.06 7.7Z" stroke="#292D32" stroke-width="1.5" stroke-linecap="round" stroke-linejoin="round"/>
<path d="M4.83005 19.92C6.3654 19.92 7.61005 18.6754 7.61005 17.14C7.61005 15.6046 6.3654 14.36 4.83005 14.36C3.2947 14.36 2.05005 15.6046 2.05005 17.14C2.05005 18.6754 3.2947 19.92 4.83005 19.92Z" stroke="#292D32" stroke-width="1.5" stroke-linecap="round" stroke-linejoin="round"/>
<path d="M19.17 19.92C20.7054 19.92 21.95 18.6754 21.95 17.14C21.95 15.6046 20.7054 14.36 19.17 14.36C17.6347 14.36 16.39 15.6046 16.39 17.14C16.39 18.6754 17.6347 19.92 19.17 19.92Z" stroke="#292D32" stroke-width="1.5" stroke-linecap="round" stroke-linejoin="round"/>
</svg>
